<svg width="157" height="134" viewBox="0 0 157 134" fill="none" xmlns="http://www.w3.org/2000/svg">
<g filter="url(#filter0_d_111_11102)">
<rect width="77" height="77" transform="matrix(-1 0 0 1 117 39)" fill="url(#paint0_linear_111_11102)"/>
</g>
<g clip-path="url(#clip0_111_11102)">
<path d="M90.95 88.8888H54.05C52.9184 88.8888 52 89.5857 52 90.4444C52 91.3031 52.9184 92 54.05 92H90.95C92.0816 92 93 91.3031 93 90.4443C93 89.5857 92.0816 88.8888 90.95 88.8888ZM54.05 67.1111H90.95C92.0816 67.1111 93 66.4143 93 65.5556C93 64.6968 92.0816 64 90.95 64H54.05C52.9184 64.0001 52 64.6969 52 65.5556C52 66.4143 52.9184 67.1111 54.05 67.1111ZM90.95 76.4444H54.05C52.9184 76.4444 52 77.1413 52 78C52 78.8587 52.9184 79.5556 54.05 79.5556H90.95C92.0816 79.5556 93 78.8587 93 78C93 77.1414 92.0816 76.4444 90.95 76.4444Z" fill="white"/>
</g>
<defs>
<filter id="filter0_d_111_11102" x="0" y="-1" width="157" height="157" filterUnits="userSpaceOnUse" color-interpolation-filters="sRGB">
<feFlood flood-opacity="0" result="BackgroundImageFix"/>
<feColorMatrix in="SourceAlpha" type="matrix" values="0 0 0 0 0 0 0 0 0 0 0 0 0 0 0 0 0 0 127 0" result="hardAlpha"/>
<feOffset/>
<feGaussianBlur stdDeviation="20"/>
<feColorMatrix type="matrix" values="0 0 0 0 0 0 0 0 0 0 0 0 0 0 0 0 0 0 0.12 0"/>
<feBlend mode="normal" in2="BackgroundImageFix" result="effect1_dropShadow_111_11102"/>
<feBlend mode="normal" in="SourceGraphic" in2="effect1_dropShadow_111_11102" result="shape"/>
</filter>
<linearGradient id="paint0_linear_111_11102" x1="-42.8312" y1="-53.4722" x2="91.6128" y2="-37.4984" gradientUnits="userSpaceOnUse">
<stop stop-color="#F64D4D"/>
<stop offset="1" stop-color="#4D5EF6"/>
</linearGradient>
<clipPath id="clip0_111_11102">
<rect width="30" height="30" fill="white" transform="translate(63 63)"/>
</clipPath>
</defs>
</svg>
